<?xml version="1.0" encoding="UTF-8"?>
<svg width="11px" height="46px" viewBox="0 0 11 46" version="1.1" xmlns="http://www.w3.org/2000/svg" xmlns:xlink="http://www.w3.org/1999/xlink">
    <g id="Page-1" stroke="none" stroke-width="1" fill="none" fill-rule="evenodd">
        <rect id="Rectangle" fill="#FFFFFF" x="0" y="0" width="11" height="46"></rect>
        <rect id="Rectangle" fill="#B01F26" x="7" y="0" width="4" height="46"></rect>
        <polygon id="Path" fill="#1C1448" points="1 0 6 9 6 0"></polygon>
        <polygon id="Path" fill="#1C1448" points="6 26 0 26 0 35"></polygon>
        <path d="M6,45 L6,46 L0,46 L0,45 L6,35 L6,45 Z" id="Combined-Shape" fill="#1C1448"></path>
        <polygon id="Path" fill="#B01F26" points="6 32.5049881 6 29 0 39.4950119 0 43"></polygon>
        <polygon id="Path-Copy-2" fill="#1C1448" transform="translate(2.500000, 13.500000) scale(-1, 1) translate(-2.500000, -13.500000) " points="5 18 5 9 0 18"></polygon>
        <polygon id="Path-Copy" fill="#B01F26" transform="translate(3.000000, 10.000000) scale(-1, 1) translate(-3.000000, -10.000000) " points="6 6.50498812 6 3 0 13.4950119 0 17"></polygon>
        <rect id="Rectangle" fill="#B01F26" x="0" y="19" width="11" height="6"></rect>
    </g>
</svg>