<?xml version="1.0" encoding="UTF-8"?>
<svg width="362px" height="33px" viewBox="0 0 362 33" version="1.1" xmlns="http://www.w3.org/2000/svg" xmlns:xlink="http://www.w3.org/1999/xlink">
    <!-- Generator: Sketch 52.6 (67491) - http://www.bohemiancoding.com/sketch -->
    <title>lite-exporter-fronte</title>
    <desc>Created with Sketch.</desc>
    <g id="Page-1" stroke="none" stroke-width="1" fill="none" fill-rule="evenodd">
        <g id="Artboard" transform="translate(-106.000000, -164.000000)" fill="#000000">
            <path d="M106.021484,165.792969 L110.873047,165.792969 L110.873047,185.884766 C110.873047,186.283205 110.987304,186.58789 111.21582,186.798828 C111.444337,187.009767 111.810544,187.115234 112.314453,187.115234 C112.548829,187.115234 112.750976,187.100586 112.920898,187.071289 C113.090821,187.041992 113.310546,186.998047 113.580078,186.939453 L113.966797,191.070312 C113.63867,191.117188 113.287111,191.164062 112.912109,191.210938 C112.595702,191.246094 112.229494,191.27832 111.813477,191.307617 C111.397459,191.336914 110.966799,191.351562 110.521484,191.351562 C109.830075,191.351562 109.208987,191.263673 108.658203,191.087891 C108.107419,190.912108 107.635744,190.651369 107.243164,190.305664 C106.850584,189.959959 106.548829,189.529299 106.337891,189.013672 C106.126952,188.498044 106.021484,187.900394 106.021484,187.220703 L106.021484,165.792969 Z M121.850234,191 L116.998672,191 L116.998672,172.173828 L121.850234,172.173828 L121.850234,191 Z M116.488906,167.234375 C116.488906,166.835936 116.565077,166.45801 116.717422,166.100586 C116.869766,165.743162 117.077772,165.432619 117.341445,165.168945 C117.605118,164.905272 117.912732,164.697266 118.264297,164.544922 C118.615861,164.392577 118.996716,164.316406 119.406875,164.316406 C119.805314,164.316406 120.18324,164.392577 120.540664,164.544922 C120.898088,164.697266 121.208631,164.905272 121.472304,165.168945 C121.735978,165.432619 121.943983,165.743162 122.096328,166.100586 C122.248672,166.45801 122.324844,166.835936 122.324844,167.234375 C122.324844,167.644533 122.248672,168.025389 122.096328,168.376953 C121.943983,168.728517 121.735978,169.036131 121.472304,169.299805 C121.208631,169.563478 120.898088,169.771484 120.540664,169.923828 C120.18324,170.076173 119.805314,170.152344 119.406875,170.152344 C118.996716,170.152344 118.615861,170.076173 118.264297,169.923828 C117.912732,169.771484 117.605118,169.563478 117.341445,169.299805 C117.077772,169.036131 116.869766,168.728517 116.717422,168.376953 C116.565077,168.025389 116.488906,167.644533 116.488906,167.234375 Z M133.337187,185.392578 C133.337187,185.615235 133.366484,185.826171 133.425078,186.025391 C133.483672,186.22461 133.58621,186.39746 133.732695,186.543945 C133.87918,186.69043 134.087186,186.804687 134.356718,186.886719 C134.626251,186.96875 134.971951,187.009766 135.393828,187.009766 C135.56961,187.009766 135.768827,187.000977 135.991484,186.983398 C136.214141,186.96582 136.436795,186.945313 136.659453,186.921875 C136.88211,186.898437 137.090116,186.869141 137.283476,186.833984 L137.766875,186.746094 L138.206328,191.035156 C137.749294,191.09375 137.27469,191.146484 136.7825,191.193359 C136.360622,191.240235 135.891877,191.27832 135.37625,191.307617 C134.860622,191.336914 134.339143,191.351562 133.811796,191.351562 C132.136007,191.351562 130.829379,190.970707 129.891875,190.208984 C128.95437,189.447262 128.485625,188.234383 128.485625,186.570312 L128.485625,176.392578 L125.093046,176.392578 L125.093046,172.173828 L128.485625,172.173828 L128.485625,166.847656 L133.337187,165.546875 L133.337187,172.173828 L138.27664,172.173828 L138.27664,176.392578 L133.337187,176.392578 L133.337187,185.392578 Z M145.755781,183.265625 C145.837812,183.828128 146.016521,184.343748 146.291913,184.8125 C146.567305,185.281252 146.915935,185.682616 147.337812,186.016602 C147.759689,186.350588 148.246012,186.611327 148.796796,186.798828 C149.34758,186.986329 149.933512,187.080078 150.554609,187.080078 C151.269456,187.080078 152.042886,186.942384 152.874921,186.666992 C153.706957,186.3916 154.468668,185.990237 155.160078,185.462891 L157.497968,188.873047 C156.619058,189.611332 155.540943,190.208982 154.263593,190.666016 C152.986243,191.123049 151.626882,191.351562 150.185468,191.351562 C148.88468,191.351562 147.660083,191.128908 146.51164,190.683594 C145.363197,190.238279 144.358324,189.593754 143.496992,188.75 C142.635659,187.906246 141.955978,186.880865 141.457929,185.673828 C140.95988,184.466791 140.710859,183.107429 140.710859,181.595703 C140.710859,180.212884 140.930583,178.923834 141.370038,177.728516 C141.809494,176.533197 142.424722,175.496098 143.215742,174.617188 C144.006761,173.738277 144.953041,173.049807 146.054609,172.551758 C147.156177,172.053708 148.374915,171.804688 149.710859,171.804688 C150.953052,171.804688 152.107338,172.030271 153.173749,172.481445 C154.240161,172.932619 155.165933,173.565426 155.951093,174.379883 C156.736253,175.19434 157.351482,176.169916 157.796796,177.306641 C158.242111,178.443365 158.464765,179.697259 158.464765,181.068359 L158.464765,183.265625 L145.755781,183.265625 Z M149.693281,176.023438 C148.650307,176.023438 147.76848,176.372067 147.047773,177.069336 C146.327066,177.766605 145.908125,178.607417 145.790937,179.591797 L153.384687,179.591797 C153.361249,178.595698 152.997972,177.751957 152.294843,177.060547 C151.591715,176.369137 150.724536,176.023438 149.693281,176.023438 Z M160.547421,177.570312 L168.106015,177.570312 L168.106015,181.929688 L160.547421,181.929688 L160.547421,177.570312 Z M175.339062,183.265625 C175.421093,183.828128 175.599802,184.343748 175.875194,184.8125 C176.150586,185.281252 176.499216,185.682616 176.921093,186.016602 C177.34297,186.350588 177.829293,186.611327 178.380077,186.798828 C178.930861,186.986329 179.516793,187.080078 180.13789,187.080078 C180.852737,187.080078 181.626167,186.942384 182.458202,186.666992 C183.290238,186.3916 184.051949,185.990237 184.743358,185.462891 L187.081249,188.873047 C186.202338,189.611332 185.124224,190.208982 183.846874,190.666016 C182.569524,191.123049 181.210162,191.351562 179.768749,191.351562 C178.467961,191.351562 177.243364,191.128908 176.094921,190.683594 C174.946478,190.238279 173.941605,189.593754 173.080272,188.75 C172.21894,187.906246 171.539259,186.880865 171.04121,185.673828 C170.543161,184.466791 170.29414,183.107429 170.29414,181.595703 C170.29414,180.212884 170.513864,178.923834 170.953319,177.728516 C171.392775,176.533197 172.008003,175.496098 172.799022,174.617188 C173.590042,173.738277 174.536322,173.049807 175.63789,172.551758 C176.739458,172.053708 177.958195,171.804688 179.29414,171.804688 C180.536333,171.804688 181.690619,172.030271 182.75703,172.481445 C183.823442,172.932619 184.749214,173.565426 185.534374,174.379883 C186.319534,175.19434 186.934762,176.169916 187.380077,177.306641 C187.825392,178.443365 188.048046,179.697259 188.048046,181.068359 L188.048046,183.265625 L175.339062,183.265625 Z M179.276562,176.023438 C178.233588,176.023438 177.35176,176.372067 176.631054,177.069336 C175.910347,177.766605 175.491406,178.607417 175.374218,179.591797 L182.967968,179.591797 C182.94453,178.595698 182.581253,177.751957 181.878124,177.060547 C181.174995,176.369137 180.307817,176.023438 179.276562,176.023438 Z M195.861171,181.138672 L190.130702,172.173828 L195.738124,172.173828 L198.620936,177.253906 L201.644374,172.173828 L207.30453,172.173828 L201.468593,181.173828 L207.954921,191 L202.224452,191 L198.515468,185.234375 L195.140468,191 L189.480311,191 L195.861171,181.138672 Z M215.293436,196.941406 L210.441874,196.941406 L210.441874,172.173828 L215.293436,172.173828 L215.293436,173.791016 C215.820782,173.240232 216.471167,172.771486 217.244608,172.384766 C218.018049,171.998045 218.95554,171.804688 220.057108,171.804688 C221.299302,171.804688 222.42722,172.053708 223.440897,172.551758 C224.454574,173.049807 225.324682,173.735347 226.051249,174.608398 C226.777815,175.48145 227.340309,176.515619 227.738749,177.710938 C228.137188,178.906256 228.336405,180.201165 228.336405,181.595703 C228.336405,182.990241 228.131329,184.28515 227.72117,185.480469 C227.311012,186.675787 226.736799,187.707027 225.998514,188.574219 C225.260229,189.441411 224.375473,190.121091 223.344217,190.613281 C222.312962,191.105471 221.176255,191.351562 219.934061,191.351562 C219.383277,191.351562 218.882306,191.301758 218.431131,191.202148 C217.979957,191.102539 217.566875,190.964845 217.191874,190.789062 C216.816872,190.61328 216.471172,190.405275 216.154764,190.165039 C215.838356,189.924803 215.55125,189.664064 215.293436,189.382812 L215.293436,196.941406 Z M215.152811,183.335938 C215.152811,183.839846 215.243631,184.305662 215.425272,184.733398 C215.606914,185.161135 215.867653,185.533202 216.207499,185.849609 C216.547344,186.166017 216.954567,186.412108 217.429178,186.587891 C217.90379,186.763673 218.439917,186.851562 219.037577,186.851562 C219.728986,186.851562 220.341285,186.725587 220.874491,186.473633 C221.407697,186.221678 221.855934,185.86719 222.219217,185.410156 C222.5825,184.953123 222.857888,184.411136 223.045389,183.78418 C223.23289,183.157223 223.326639,182.468754 223.326639,181.71875 L223.326639,181.490234 C223.326639,180.740231 223.23289,180.048831 223.045389,179.416016 C222.857888,178.7832 222.5825,178.235354 222.219217,177.772461 C221.855934,177.309568 221.407697,176.94922 220.874491,176.691406 C220.341285,176.433592 219.728986,176.304688 219.037577,176.304688 C218.439917,176.304688 217.90379,176.392577 217.429178,176.568359 C216.954567,176.744142 216.547344,176.990233 216.207499,177.306641 C215.867653,177.623048 215.606914,177.998045 215.425272,178.431641 C215.243631,178.865237 215.152811,179.333982 215.152811,179.837891 L215.152811,183.335938 Z M240.210077,171.804688 C241.604615,171.804688 242.870227,172.053708 244.006952,172.551758 C245.143676,173.049807 246.116322,173.738277 246.92492,174.617188 C247.733518,175.496098 248.357535,176.533197 248.796991,177.728516 C249.236446,178.923834 249.45617,180.212884 249.45617,181.595703 C249.45617,182.990241 249.233516,184.282221 248.788202,185.47168 C248.342887,186.661139 247.71594,187.689449 246.907342,188.556641 C246.098744,189.423832 245.126098,190.106443 243.989373,190.604492 C242.852649,191.102542 241.592896,191.351562 240.210077,191.351562 C238.815538,191.351562 237.549926,191.102542 236.413202,190.604492 C235.276477,190.106443 234.303831,189.423832 233.495233,188.556641 C232.686635,187.689449 232.059688,186.661139 231.614373,185.47168 C231.169059,184.282221 230.946405,182.990241 230.946405,181.595703 C230.946405,180.212884 231.166129,178.923834 231.605584,177.728516 C232.04504,176.533197 232.669057,175.496098 233.477655,174.617188 C234.286252,173.738277 235.261829,173.049807 236.404412,172.551758 C237.546996,172.053708 238.815538,171.804688 240.210077,171.804688 Z M240.210077,186.851562 C240.901486,186.851562 241.513785,186.722658 242.046991,186.464844 C242.580196,186.20703 243.028434,185.849612 243.391717,185.392578 C243.755,184.935545 244.030388,184.387699 244.217889,183.749023 C244.40539,183.110348 244.499139,182.41016 244.499139,181.648438 L244.499139,181.525391 C244.499139,180.763668 244.40539,180.06348 244.217889,179.424805 C244.030388,178.78613 243.755,178.235354 243.391717,177.772461 C243.028434,177.309568 242.580196,176.94922 242.046991,176.691406 C241.513785,176.433592 240.901486,176.304688 240.210077,176.304688 C239.518667,176.304688 238.906368,176.433592 238.373162,176.691406 C237.839957,176.94922 237.391719,177.309568 237.028436,177.772461 C236.665153,178.235354 236.389765,178.78613 236.202264,179.424805 C236.014763,180.06348 235.921014,180.763668 235.921014,181.525391 L235.921014,181.648438 C235.921014,182.41016 236.014763,183.110348 236.202264,183.749023 C236.389765,184.387699 236.665153,184.935545 237.028436,185.392578 C237.391719,185.849612 237.839957,186.20703 238.373162,186.464844 C238.906368,186.722658 239.518667,186.851562 240.210077,186.851562 Z M263.614998,176.884766 L263.105233,176.884766 C262.413823,176.884766 261.75465,176.955077 261.127694,177.095703 C260.500737,177.236329 259.947032,177.491209 259.466561,177.860352 C258.98609,178.229494 258.602304,178.736325 258.315194,179.380859 C258.028083,180.025394 257.884529,180.851557 257.884529,181.859375 L257.884529,191 L253.032967,191 L253.032967,172.173828 L257.884529,172.173828 L257.884529,174.300781 C258.083749,173.984373 258.341559,173.679689 258.657967,173.386719 C258.974375,173.093749 259.343512,172.833009 259.765389,172.604492 C260.187266,172.375975 260.661871,172.191407 261.189217,172.050781 C261.716563,171.910156 262.284917,171.839844 262.894295,171.839844 L263.614998,171.839844 L263.614998,176.884766 Z M273.941795,185.392578 C273.941795,185.615235 273.971091,185.826171 274.029686,186.025391 C274.08828,186.22461 274.190818,186.39746 274.337303,186.543945 C274.483788,186.69043 274.691794,186.804687 274.961326,186.886719 C275.230859,186.96875 275.576558,187.009766 275.998436,187.009766 C276.174218,187.009766 276.373434,187.000977 276.596092,186.983398 C276.818749,186.96582 277.041403,186.945313 277.264061,186.921875 C277.486718,186.898437 277.694724,186.869141 277.888084,186.833984 L278.371482,186.746094 L278.810936,191.035156 C278.353902,191.09375 277.879297,191.146484 277.387107,191.193359 C276.96523,191.240235 276.496485,191.27832 275.980857,191.307617 C275.46523,191.336914 274.943751,191.351562 274.416404,191.351562 C272.740615,191.351562 271.433987,190.970707 270.496482,190.208984 C269.558978,189.447262 269.090232,188.234383 269.090232,186.570312 L269.090232,176.392578 L265.697654,176.392578 L265.697654,172.173828 L269.090232,172.173828 L269.090232,166.847656 L273.941795,165.546875 L273.941795,172.173828 L278.881248,172.173828 L278.881248,176.392578 L273.941795,176.392578 L273.941795,185.392578 Z M286.360388,183.265625 C286.44242,183.828128 286.621129,184.343748 286.896521,184.8125 C287.171913,185.281252 287.520543,185.682616 287.94242,186.016602 C288.364297,186.350588 288.85062,186.611327 289.401404,186.798828 C289.952188,186.986329 290.53812,187.080078 291.159217,187.080078 C291.874064,187.080078 292.647494,186.942384 293.479529,186.666992 C294.311564,186.3916 295.073276,185.990237 295.764685,185.462891 L298.102576,188.873047 C297.223665,189.611332 296.145551,190.208982 294.868201,190.666016 C293.590851,191.123049 292.231489,191.351562 290.790076,191.351562 C289.489288,191.351562 288.264691,191.128908 287.116248,190.683594 C285.967805,190.238279 284.962932,189.593754 284.101599,188.75 C283.240267,187.906246 282.560586,186.880865 282.062537,185.673828 C281.564487,184.466791 281.315467,183.107429 281.315467,181.595703 C281.315467,180.212884 281.535191,178.923834 281.974646,177.728516 C282.414102,176.533197 283.02933,175.496098 283.820349,174.617188 C284.611369,173.738277 285.557649,173.049807 286.659217,172.551758 C287.760785,172.053708 288.979522,171.804688 290.315467,171.804688 C291.55766,171.804688 292.711946,172.030271 293.778357,172.481445 C294.844769,172.932619 295.770541,173.565426 296.555701,174.379883 C297.340861,175.19434 297.956089,176.169916 298.401404,177.306641 C298.846719,178.443365 299.069373,179.697259 299.069373,181.068359 L299.069373,183.265625 L286.360388,183.265625 Z M290.297888,176.023438 C289.254914,176.023438 288.373087,176.372067 287.652381,177.069336 C286.931674,177.766605 286.512733,178.607417 286.395545,179.591797 L293.989295,179.591797 C293.965857,178.595698 293.602579,177.751957 292.899451,177.060547 C292.196322,176.369137 291.329144,176.023438 290.297888,176.023438 Z M313.105154,176.884766 L312.595388,176.884766 C311.903979,176.884766 311.244805,176.955077 310.617849,177.095703 C309.990893,177.236329 309.437188,177.491209 308.956716,177.860352 C308.476245,178.229494 308.09246,178.736325 307.805349,179.380859 C307.518238,180.025394 307.374685,180.851557 307.374685,181.859375 L307.374685,191 L302.523123,191 L302.523123,172.173828 L307.374685,172.173828 L307.374685,174.300781 C307.573905,173.984373 307.831715,173.679689 308.148123,173.386719 C308.46453,173.093749 308.833667,172.833009 309.255544,172.604492 C309.677422,172.375975 310.152026,172.191407 310.679373,172.050781 C311.206719,171.910156 311.775073,171.839844 312.384451,171.839844 L313.105154,171.839844 L313.105154,176.884766 Z M315.117497,177.570312 L322.676091,177.570312 L322.676091,181.929688 L315.117497,181.929688 L315.117497,177.570312 Z M332.352497,172.173828 L335.956013,172.173828 L335.956013,176.392578 L332.352497,176.392578 L332.352497,191 L327.500935,191 L327.500935,176.392578 L324.512653,176.392578 L324.512653,172.173828 L327.500935,172.173828 L327.500935,169.871094 C327.500935,169.050777 327.641558,168.33887 327.92281,167.735352 C328.204061,167.131833 328.593706,166.633791 329.091755,166.241211 C329.589804,165.848631 330.187455,165.555665 330.884724,165.362305 C331.581993,165.168944 332.352493,165.072266 333.196247,165.072266 C333.618124,165.072266 334.028276,165.083984 334.426716,165.107422 C334.825155,165.130859 335.194292,165.154297 335.534138,165.177734 C335.873983,165.201172 336.175738,165.230469 336.439411,165.265625 C336.703084,165.300781 336.905231,165.324219 337.045857,165.335938 L336.64156,169.466797 C336.500934,169.443359 336.328084,169.419922 336.123005,169.396484 C335.917926,169.373047 335.704061,169.352539 335.481403,169.334961 C335.258746,169.317383 335.041951,169.305664 334.831013,169.299805 C334.620074,169.293945 334.432576,169.291016 334.268513,169.291016 C333.577103,169.291016 333.084921,169.42285 332.79195,169.686523 C332.49898,169.950197 332.352497,170.287107 332.352497,170.697266 L332.352497,172.173828 Z M349.675388,176.884766 L349.165622,176.884766 C348.474212,176.884766 347.815039,176.955077 347.188083,177.095703 C346.561127,177.236329 346.007421,177.491209 345.52695,177.860352 C345.046479,178.229494 344.662694,178.736325 344.375583,179.380859 C344.088472,180.025394 343.944919,180.851557 343.944919,181.859375 L343.944919,191 L339.093356,191 L339.093356,172.173828 L343.944919,172.173828 L343.944919,174.300781 C344.144139,173.984373 344.401949,173.679689 344.718356,173.386719 C345.034764,173.093749 345.403901,172.833009 345.825778,172.604492 C346.247655,172.375975 346.72226,172.191407 347.249606,172.050781 C347.776953,171.910156 348.345306,171.839844 348.954684,171.839844 L349.675388,171.839844 L349.675388,176.884766 Z M361.338122,171.804688 C362.73266,171.804688 363.998272,172.053708 365.134997,172.551758 C366.271721,173.049807 367.244368,173.738277 368.052966,174.617188 C368.861563,175.496098 369.485581,176.533197 369.925036,177.728516 C370.364491,178.923834 370.584216,180.212884 370.584216,181.595703 C370.584216,182.990241 370.361562,184.282221 369.916247,185.47168 C369.470932,186.661139 368.843985,187.689449 368.035387,188.556641 C367.22679,189.423832 366.254143,190.106443 365.117419,190.604492 C363.980694,191.102542 362.720941,191.351562 361.338122,191.351562 C359.943584,191.351562 358.677971,191.102542 357.541247,190.604492 C356.404522,190.106443 355.431876,189.423832 354.623278,188.556641 C353.81468,187.689449 353.187733,186.661139 352.742419,185.47168 C352.297104,184.282221 352.07445,182.990241 352.07445,181.595703 C352.07445,180.212884 352.294174,178.923834 352.73363,177.728516 C353.173085,176.533197 353.797102,175.496098 354.6057,174.617188 C355.414298,173.738277 356.389874,173.049807 357.532458,172.551758 C358.675042,172.053708 359.943584,171.804688 361.338122,171.804688 Z M361.338122,186.851562 C362.029532,186.851562 362.64183,186.722658 363.175036,186.464844 C363.708242,186.20703 364.156479,185.849612 364.519762,185.392578 C364.883045,184.935545 365.158433,184.387699 365.345934,183.749023 C365.533435,183.110348 365.627184,182.41016 365.627184,181.648438 L365.627184,181.525391 C365.627184,180.763668 365.533435,180.06348 365.345934,179.424805 C365.158433,178.78613 364.883045,178.235354 364.519762,177.772461 C364.156479,177.309568 363.708242,176.94922 363.175036,176.691406 C362.64183,176.433592 362.029532,176.304688 361.338122,176.304688 C360.646712,176.304688 360.034414,176.433592 359.501208,176.691406 C358.968002,176.94922 358.519764,177.309568 358.156481,177.772461 C357.793198,178.235354 357.51781,178.78613 357.330309,179.424805 C357.142808,180.06348 357.049059,180.763668 357.049059,181.525391 L357.049059,181.648438 C357.049059,182.41016 357.142808,183.110348 357.330309,183.749023 C357.51781,184.387699 357.793198,184.935545 358.156481,185.392578 C358.519764,185.849612 358.968002,186.20703 359.501208,186.464844 C360.034414,186.722658 360.646712,186.851562 361.338122,186.851562 Z M374.161012,172.173828 L379.012575,172.173828 L379.012575,173.791016 C379.270389,173.533202 379.560425,173.284181 379.882692,173.043945 C380.204959,172.80371 380.559448,172.592774 380.946168,172.411133 C381.332889,172.229491 381.763549,172.083008 382.238161,171.97168 C382.712772,171.860351 383.237181,171.804688 383.811403,171.804688 C384.830939,171.804688 385.744993,171.971678 386.55359,172.305664 C387.362188,172.63965 388.044799,173.099606 388.601442,173.685547 C389.158085,174.271487 389.582886,174.957027 389.875856,175.742188 C390.168826,176.527348 390.315309,177.376949 390.315309,178.291016 L390.315309,191 L385.463747,191 L385.463747,180.048828 C385.463747,179.380856 385.387575,178.815432 385.235231,178.352539 C385.082886,177.889646 384.874881,177.51465 384.611208,177.227539 C384.347534,176.940428 384.036991,176.729493 383.679567,176.594727 C383.322143,176.45996 382.932499,176.392578 382.510622,176.392578 C382.018432,176.392578 381.558475,176.480468 381.130739,176.65625 C380.703002,176.832032 380.330936,177.098631 380.014528,177.456055 C379.69812,177.813478 379.452029,178.261716 379.276247,178.800781 C379.100464,179.339846 379.012575,179.972653 379.012575,180.699219 L379.012575,191 L374.161012,191 L374.161012,172.173828 Z M401.661637,185.392578 C401.661637,185.615235 401.690934,185.826171 401.749528,186.025391 C401.808122,186.22461 401.91066,186.39746 402.057145,186.543945 C402.20363,186.69043 402.411636,186.804687 402.681168,186.886719 C402.950701,186.96875 403.296401,187.009766 403.718278,187.009766 C403.89406,187.009766 404.093277,187.000977 404.315934,186.983398 C404.538591,186.96582 404.761245,186.945313 404.983903,186.921875 C405.20656,186.898437 405.414566,186.869141 405.607926,186.833984 L406.091325,186.746094 L406.530778,191.035156 C406.073744,191.09375 405.599139,191.146484 405.10695,191.193359 C404.685072,191.240235 404.216327,191.27832 403.7007,191.307617 C403.185072,191.336914 402.663593,191.351562 402.136246,191.351562 C400.460457,191.351562 399.153829,190.970707 398.216325,190.208984 C397.27882,189.447262 396.810075,188.234383 396.810075,186.570312 L396.810075,176.392578 L393.417496,176.392578 L393.417496,172.173828 L396.810075,172.173828 L396.810075,166.847656 L401.661637,165.546875 L401.661637,172.173828 L406.60109,172.173828 L406.60109,176.392578 L401.661637,176.392578 L401.661637,185.392578 Z M414.080231,183.265625 C414.162262,183.828128 414.340971,184.343748 414.616363,184.8125 C414.891755,185.281252 415.240385,185.682616 415.662262,186.016602 C416.084139,186.350588 416.570462,186.611327 417.121246,186.798828 C417.67203,186.986329 418.257962,187.080078 418.879059,187.080078 C419.593906,187.080078 420.367336,186.942384 421.199371,186.666992 C422.031407,186.3916 422.793118,185.990237 423.484527,185.462891 L425.822418,188.873047 C424.943507,189.611332 423.865393,190.208982 422.588043,190.666016 C421.310693,191.123049 419.951332,191.351562 418.509918,191.351562 C417.20913,191.351562 415.984533,191.128908 414.83609,190.683594 C413.687647,190.238279 412.682774,189.593754 411.821442,188.75 C410.960109,187.906246 410.280428,186.880865 409.782379,185.673828 C409.28433,184.466791 409.035309,183.107429 409.035309,181.595703 C409.035309,180.212884 409.255033,178.923834 409.694488,177.728516 C410.133944,176.533197 410.749172,175.496098 411.540192,174.617188 C412.331211,173.738277 413.277491,173.049807 414.379059,172.551758 C415.480627,172.053708 416.699365,171.804688 418.035309,171.804688 C419.277502,171.804688 420.431788,172.030271 421.498199,172.481445 C422.564611,172.932619 423.490383,173.565426 424.275543,174.379883 C425.060703,175.19434 425.675931,176.169916 426.121246,177.306641 C426.566561,178.443365 426.789215,179.697259 426.789215,181.068359 L426.789215,183.265625 L414.080231,183.265625 Z M418.017731,176.023438 C416.974757,176.023438 416.092929,176.372067 415.372223,177.069336 C414.651516,177.766605 414.232575,178.607417 414.115387,179.591797 L421.709137,179.591797 C421.685699,178.595698 421.322422,177.751957 420.619293,177.060547 C419.916165,176.369137 419.048986,176.023438 418.017731,176.023438 Z M430.242965,172.173828 L435.094527,172.173828 L435.094527,173.791016 C435.352341,173.533202 435.642377,173.284181 435.964644,173.043945 C436.286912,172.80371 436.6414,172.592774 437.028121,172.411133 C437.414842,172.229491 437.845501,172.083008 438.320113,171.97168 C438.794725,171.860351 439.319134,171.804688 439.893355,171.804688 C440.912892,171.804688 441.826945,171.971678 442.635543,172.305664 C443.444141,172.63965 444.126751,173.099606 444.683394,173.685547 C445.240038,174.271487 445.664838,174.957027 445.957809,175.742188 C446.250779,176.527348 446.397262,177.376949 446.397262,178.291016 L446.397262,191 L441.545699,191 L441.545699,180.048828 C441.545699,179.380856 441.469528,178.815432 441.317184,178.352539 C441.164839,177.889646 440.956833,177.51465 440.69316,177.227539 C440.429487,176.940428 440.118943,176.729493 439.761519,176.594727 C439.404096,176.45996 439.014451,176.392578 438.592574,176.392578 C438.100384,176.392578 437.640428,176.480468 437.212691,176.65625 C436.784955,176.832032 436.412888,177.098631 436.09648,177.456055 C435.780073,177.813478 435.533981,178.261716 435.358199,178.800781 C435.182417,179.339846 435.094527,179.972653 435.094527,180.699219 L435.094527,191 L430.242965,191 L430.242965,172.173828 Z M462.89398,191 L462.89398,189.382812 C462.636166,189.664064 462.35199,189.924803 462.041441,190.165039 C461.730893,190.405275 461.385193,190.61328 461.004332,190.789062 C460.62347,190.964845 460.207459,191.102539 459.756285,191.202148 C459.305111,191.301758 458.804139,191.351562 458.253355,191.351562 C457.011161,191.351562 455.874454,191.105471 454.843199,190.613281 C453.811944,190.121091 452.927187,189.441411 452.188902,188.574219 C451.450617,187.707027 450.879334,186.675787 450.475035,185.480469 C450.070736,184.28515 449.86859,182.990241 449.86859,181.595703 C449.86859,180.201165 450.067806,178.906256 450.466246,177.710938 C450.864685,176.515619 451.42425,175.48145 452.144957,174.608398 C452.865663,173.735347 453.735772,173.049807 454.755308,172.551758 C455.774845,172.053708 456.905693,171.804688 458.147886,171.804688 C459.249454,171.804688 460.184015,171.995115 460.951597,172.375977 C461.719179,172.756838 462.366634,173.228513 462.89398,173.791016 L462.89398,165.792969 L467.745543,165.792969 L467.745543,191 L462.89398,191 Z M463.034605,179.837891 C463.034605,179.333982 462.943786,178.865237 462.762144,178.431641 C462.580503,177.998045 462.319763,177.623048 461.979918,177.306641 C461.640072,176.990233 461.23285,176.744142 460.758238,176.568359 C460.283626,176.392577 459.747499,176.304688 459.14984,176.304688 C458.45843,176.304688 457.846131,176.433592 457.312925,176.691406 C456.77972,176.94922 456.331482,177.309568 455.968199,177.772461 C455.604916,178.235354 455.329528,178.7832 455.142027,179.416016 C454.954526,180.048831 454.860777,180.740231 454.860777,181.490234 L454.860777,181.71875 C454.860777,182.468754 454.954526,183.157223 455.142027,183.78418 C455.329528,184.411136 455.604916,184.953123 455.968199,185.410156 C456.331482,185.86719 456.77972,186.221678 457.312925,186.473633 C457.846131,186.725587 458.45843,186.851562 459.14984,186.851562 C459.747499,186.851562 460.283626,186.763673 460.758238,186.587891 C461.23285,186.412108 461.640072,186.166017 461.979918,185.849609 C462.319763,185.533202 462.580503,185.161135 462.762144,184.733398 C462.943786,184.305662 463.034605,183.839846 463.034605,183.335938 L463.034605,179.837891 Z" id="lite-exporter-fronte"></path>
        </g>
    </g>
</svg>